<?xml version="1.0" standalone="no"?><!DOCTYPE svg PUBLIC "-//W3C//DTD SVG 1.1//EN" "http://www.w3.org/Graphics/SVG/1.1/DTD/svg11.dtd"><svg t="1552972624781" class="icon" style="" viewBox="0 0 1024 1024" version="1.1" xmlns="http://www.w3.org/2000/svg" p-id="2405" xmlns:xlink="http://www.w3.org/1999/xlink" width="200" height="200"><defs><style type="text/css"></style></defs><path d="M888.895736 557.750349c-13.039724 0-26.143057 0.667888-39.119173-0.190825-11.004255-0.731497-14.311892 2.79877-14.184676 14.057459 0.572476 56.166227 0.349846 112.300649 0.254434 168.466876-0.159021 76.552722-50.854924 127.852906-127.153213 127.948318-143.055316 0.222629-286.078827 0.254434-429.134143-0.031804-75.280554-0.127217-126.548933-51.618225-126.644346-126.962388-0.190825-139.334224-0.190825-278.668447 0-418.002671 0.095413-75.280554 51.554617-126.67615 126.580738-127.121409 3.721092-0.031804 7.41038-0.095413 11.131472 0 43.285523 1.272168 84.312948-3.339442 126.485324-18.859894 85.616921-31.549772 172.378793-29.291673 254.974315 15.138802 11.163276 6.010995 22.803615 3.40305 34.18952 3.530267 25.284343 0.286238 49.519148 4.166351 71.24142 18.032984 38.228655 24.362021 58.042675 59.155822 58.265305 104.604032 0.222629 47.165637 1.908252 94.394882-0.540672 141.433301-1.940057 36.797466 16.856229 60.618815 41.091034 83.008976 4.198155 3.880113 8.873373 7.18775 13.325962 10.749821-0.222629 1.399385-0.508867 2.79877-0.763301 4.198155z" fill="#123450" p-id="2406"></path><path d="M638.024164 513.415287c-26.270274 20.004845-29.355282 48.278784-6.869709 64.816971 12.530857 9.22322 26.238469 10.972451 40.200516 3.275833 17.01525-9.382241 22.103923-24.552847 19.686803-42.999286 3.085008-2.830574 6.742492-2.639749 10.20915-1.335776 17.905768 6.742492 36.924682 9.732087 54.703233 16.856228 22.930832 31.676989 40.900208 66.311768 59.537473 100.533094 1.240364 2.289903 2.639749 4.929652 2.607944 7.378575-0.540671 32.122247 2.830574 64.276299-1.749231 96.334938-20.19567 49.455539-60.364382 72.927043-110.424201 73.690344-141.369693 2.130882-282.77119 1.081343-424.172687 0.540672-44.494083-0.159021-93.567972-34.380346-107.339193-72.577197-1.844644-5.088673-2.671553-10.145542-2.671553-15.488648 0.063608-76.775352 0.031804-153.582508 0.031804-230.35786 0-2.639749-0.095413-5.311302 1.081343-7.79203 31.676989-53.144827 71.972917-98.434016 123.114079-137.076125 1.876448 17.778551 3.466658 33.235395 5.438519 51.840855 4.420785-8.746156 7.855639-14.947977 10.781626-21.40423 5.502128-12.085598 12.02199-23.566916 20.450104-33.839675 24.075783-29.41889 39.532627-28.846414 61.954592 1.399385 35.747927 48.183371 85.680529 77.824891 137.87123 104.254185 13.38957 6.8061 26.715533 14.280088 42.522223 17.206075 0.795105-10.431779-7.219555-17.047054-7.951052-25.856819-1.081343-5.661149 3.562071-5.311302 5.438519-3.562071 20.036649 18.796285 43.857999 32.59931 65.135013 49.773582 1.20856 0.954126 1.049539 2.830574 0.413455 4.38898z" fill="#FBDBCB" p-id="2407"></path><path d="M533.292915 376.879834c-3.752896 28.655589 1.749231 52.445135 10.718018 79.478709-37.687983-18.319222-70.25549-37.878809-99.578967-62.717893-13.803025-11.672143-25.952232-24.839084-36.638445-39.500823-27.288008-37.465354-54.607821-38.64211-85.744138-4.293568-2.003665 2.226294-4.102742 4.357176-8.269093 8.777961-1.272168-19.81402-4.102742-37.051899-3.116812-54.035345 1.844644-31.708793 16.061124-57.883654 41.727117-77.06159 82.881759-61.890984 227.11383-69.65121 315.084263-16.824424 64.880579 38.960152 97.193652 99.865205 112.745908 171.170233 11.831164 54.22617 28.464764 106.162437 61.890984 151.451626 0.826909 1.113147 0.98593 2.735162 2.003664 5.692952-62.940522 1.431189-121.142218-12.658074-176.06808-40.804795-54.480604-27.924092-99.642575-66.757027-134.754419-121.333043z" fill="#EA5B5A" p-id="2408"></path><path d="M337.98329 214.360344c-35.684318 33.171786-50.918533 70.764357-44.303258 116.244371 1.653819 11.481318-1.144951 19.177936-11.385905 26.556511-36.288598 26.174861-67.106873 58.138087-94.013231 93.886014-4.929652 6.519862-10.018325 12.944312-16.474579 18.82809 0.127217-56.388856-5.438519-112.396062 1.176756-167.958009C178.739634 253.288691 217.12731 218.494891 265.75594 214.678386c22.99444-1.81284 46.243315-0.318042 72.22735-0.318042z" fill="#EA5B5A" p-id="2409"></path><path d="M172.88766 506.259341c0.159021 71.432245 0.318042 142.86449 0.445259 214.296736 0.063608 43.826195 23.280678 78.842625 63.608411 96.080504 18.160201 7.760226 36.702053 11.608535 56.770507 11.513122 134.945243-0.508867 269.890487-0.190825 404.83573-0.318042 49.487344-0.031804 86.857285-21.976706 112.777712-63.926452 1.335777-2.130882 3.371246-3.816505 5.088673-5.724757-3.180421 48.787651-46.43414 91.150853-97.161848 91.43709-149.956828 0.795105-299.945461 0.858714-449.902289-0.031804-53.272044-0.318042-97.352673-44.748517-98.46582-99.419946-1.59021-78.938038-0.508867-157.90788-0.540671-236.845917-0.031804-2.607945 0.095413-5.247694 2.544336-7.060534z" fill="#EFC0AC" p-id="2410"></path><path d="M818.354008 445.67233c-10.018325-20.481908-14.375501-38.960152-17.905767-57.279374-12.817095-66.788831-39.787061-125.69022-93.408952-172.378793 14.566326-4.166351 26.969966-0.38165 38.960152 3.434854 44.176041 14.089263 71.813896 52.731372 72.259155 101.04196 0.38165 40.200516 0.095413 80.432835 0.095412 125.181353z" fill="#EA5B5A" p-id="2411"></path><path d="M815.650651 615.793024c-11.608535-19.623195-23.21707-39.214585-35.811536-60.523403 12.435444-2.385315 22.867224 2.130882 33.458024 2.321707 6.20182 0.095413 5.056869 5.629344 5.088673 9.636675 0.095413 15.774886 0.031804 31.581576 0.031805 47.356461-0.922322 0.38165-1.844644 0.795105-2.766966 1.20856z" fill="#E65A59" p-id="2412"></path><path d="M653.57642 528.967544c11.385906-0.190825 19.782216 8.205485 19.400565 19.909432-0.38165 11.926577-6.933317 18.541852-18.732677 18.700873-11.703948 0.159021-18.637264-6.233624-19.654998-18.00118-0.922322-10.972451 8.046464-20.4183 18.98711-20.609125z" fill="#FEFEFE" p-id="2413"></path><path d="M638.024164 513.415287c-21.658664-17.428705-47.03842-30.02317-65.771097-51.236575-1.717427-1.940057-3.689288-1.367581-5.21589 0.60428-2.957791-4.802435-5.883778-9.636674-4.452588-17.778551 11.608535 9.891108 22.040314 19.146132 32.82194 27.892289 14.343697 11.608535 29.641519 21.881293 45.511817 31.327142 2.321707 1.399385 7.155946 2.289903 5.374911 6.106407-0.858714 1.908252-5.406715 2.099078-8.269093 3.085008z" fill="#E9BDAA" p-id="2414"></path><path d="M755.954157 554.029257c-22.771811-0.477063-43.190111-10.622605-64.912383-15.520452-2.067273-2.735162-4.357176-5.374911-4.00733-9.763891 21.658664 6.551666 42.999286 12.976116 64.339908 19.464174 2.766966 0.858714 4.102742 3.085008 4.579805 5.820169z" fill="#E6BAA8" p-id="2415"></path><path d="M368.896978 549.258627c-0.38165 20.481908-17.492313 37.147312-37.847004 36.892878-20.958971-0.254434-37.751592-18.096593-36.988291-39.278194 0.731497-20.4183 18.319222-36.892878 38.546697-36.129577 20.386496 0.731497 36.670249 18.064789 36.288598 38.514893z" fill="#143551" p-id="2416"></path><path d="M529.762649 758.180452c-6.424449 0.318042-12.62627-0.508867-18.510048-3.148617-10.749821-4.834239-21.372426-4.325372-32.058639 0.254434-10.113737 4.325372-20.577321 3.40305-31.0091 1.462993-5.21589-0.954126-9.763891-1.59021-8.650744-9.700282s4.834239-9.541262 11.449514-8.269094c10.686213 2.003665 20.863559 0.508867 30.818275-3.625679 10.368171-4.325372 20.79995-3.148616 30.786471 0.890518 8.078268 3.244029 15.997515 4.61161 24.616455 3.021399 7.028729-1.303972 13.771221-1.717427 14.629934 8.650744 0.890518 10.431779-7.473988 8.078268-12.721682 9.763891-2.862378 0.922322-6.20182 0.508867-9.350436 0.699693z" fill="#163551" p-id="2417"></path><path d="M329.141721 567.705066c-9.763891-1.303972-16.474578-7.569401-16.951641-19.177936-0.477063-11.290493 8.650744-20.163866 19.909432-19.43237 11.703948 0.763301 18.128397 7.728422 18.891698 19.146132 0.699693 10.5908-9.286828 19.782216-21.849489 19.464174z" fill="#FDFDFE" p-id="2418"></path></svg>